<?xml version="1.0" standalone="yes"?>
<svg xmlns="http://www.w3.org/2000/svg" width="512" height="512">
<path style="fill:#ffffff; stroke:none;" d="M0 0L0 512L156 512C147.919 500.528 135.918 490.918 126 481L69 424C59.6774 414.677 43.936 403.816 38.0278 392C34.8188 385.582 37 374.066 37 367L37 306L37 88C37 67.4475 32.5041 40.8594 37.7639 21C40.3525 11.2261 48.2244 3.349 58 1L39 0L0 0z"/>
<path style="fill:#010101; stroke:none;" d="M58 0.517761C28.6938 6.78152 37 48.1335 37 70L37 289L37 360C37 369.292 34.3804 383.258 37.6034 392C40.0057 398.516 48.1924 404.192 53 409L89 445L134 490C140.486 496.486 147.744 506.844 156 510.972C161.545 513.745 170.922 512 177 512L224 512L349 512C367.705 512 390.783 515.675 409 511.471C415.576 509.953 420.302 505.024 426 501.784C451.953 487.025 473.588 460.061 474.961 429C475.988 405.753 471.693 383.077 457.522 364C452.496 357.235 446.632 351.212 440 346.015C436.42 343.209 430.953 340.883 430.148 335.96C426.181 311.698 430 283.616 430 259L430 101L430 42C430 31.5706 430.768 19.9444 424.362 11.0008C416.443 -0.0536499 405.237 0 393 0L335 0L148 0L88 0C78.4131 0 67.3961 -1.49054 58 0.517761z"/>
<path style="fill:#ffffff; stroke:none;" d="M409 0L409 1C425.129 5.65726 429.994 20.8462 430 36L430 138L430 272C430 292.711 426.697 316.511 430.148 336.907C431.153 342.845 440.838 347.218 445 351.09C454.305 359.745 461.24 369.601 466.742 381C488.519 426.127 466.907 477.953 425 501.784C419.522 504.899 415.151 509.19 409 511L409 512L512 512L512 0L409 0M70 33L70 286L70 353C70 360.105 67.5663 372.863 71.6034 378.981C76.7451 386.773 89.9538 384 98 384C117.917 384 141.001 379.774 155.896 396.004C169.324 410.636 165 433.698 165 452C165 459.499 162.564 471.352 169.059 476.682C173.112 480.008 179.108 479 184 479L218 479C216.24 474.052 213.639 469.449 214.316 464C214.792 460.161 217.613 456.753 217.803 453C218.064 447.837 213.65 443.565 214.2 438C214.615 433.801 218.003 430.109 218.003 426C218.003 422.229 214.946 418.757 214.333 415C212.898 406.218 219.659 396.419 228 393.804C241.517 389.566 260.861 393 275 393C279.586 393 288.588 394.712 292.49 391.972C295.477 389.875 296.295 384.171 297.782 381C301.133 373.851 305.151 367.016 310.3 361C333.881 333.449 361.635 326.977 396 327L396 33L70 33z"/>
<path style="fill:#010101; stroke:none;" d="M122 54.4321C76.4571 60.4296 85.7341 128.225 131 121.7C172.791 115.675 163.931 48.9102 122 54.4321z"/>
<path style="fill:#ffffff; stroke:none;" d="M121 66.5185C91.8511 72.7957 102.327 116.298 131 109.468C157.613 103.127 147.398 60.8337 121 66.5185z"/>
<path style="fill:#010101; stroke:none;" d="M178.282 69.0278C172.929 72.4561 177.227 78.8857 182.005 79.7716C207.491 84.4974 238.041 80 264 80C270.608 80 286.568 82.8801 291.396 77.4861C300.916 66.8504 276.114 68 272 68L204 68C197.45 68 183.906 65.4262 178.282 69.0278M179.228 96.7423C174.032 99.1699 175.924 106.776 181.044 107.772C195.603 110.602 213.156 108 228 108L325 108L359 108C362.988 108 369.396 109.173 372.682 106.397C377.061 102.697 373.843 96.9167 368.995 96.1481C358.196 94.4363 345.938 96 335 96L224 96L193 96C188.904 96 183.031 94.966 179.228 96.7423M94.2284 145.028C87.7376 149.006 93.9245 155.107 99 155.811C112.821 157.728 128.043 156 142 156L307 156L356 156C360.847 156 369.659 157.593 373.257 153.486C379.561 146.29 368.83 144.008 364 144L314 144L154 144L111 144C106.321 144 98.3584 142.496 94.2284 145.028M161 177.428C148.105 179.276 135.752 183.569 125 191.039C59.8204 236.324 99.8945 346.048 180 334.572C192.95 332.716 205.155 328.37 216 320.971C281.862 276.043 240.794 165.997 161 177.428M269.059 209.742C263.619 212.019 264.506 219.237 270.019 220.682C277.476 222.636 287.303 221 295 221L348 221C353.866 221 368.856 223.674 373.258 219.258C383.474 209.008 359.049 209 355 209L295 209C287.534 209 276.008 206.834 269.059 209.742z"/>
<path style="fill:#ffffff; stroke:none;" d="M207.999 224.032C203.004 226.45 199.592 232.048 195.91 236C187.422 245.113 178.757 254.142 170.004 263C166.528 266.518 161.954 274.486 156.999 275.793C151.413 277.267 138.109 260.774 134 256.976C131.379 254.553 127.202 249.837 123.323 252.786C118.766 256.25 124.495 261.442 127.005 264C133.805 270.931 140.927 277.404 148 284.035C150.687 286.554 153.842 290.439 157.996 289.199C163.717 287.491 168.901 279.107 173 275C182.997 264.983 192.445 254.354 202.09 244C206.083 239.713 212.373 235.459 214.777 230.001C216.883 225.22 212.36 221.922 207.999 224.032z"/>
<path style="fill:#010101; stroke:none;" d="M270.044 236.573C265.464 237.974 263.008 244.818 268.228 247.258C274.326 250.108 285.347 248 292 248L348 248C354.243 248 367.276 250.464 372.566 246.821C384.696 238.467 360.766 236 357 236L298 236C289.482 236 278.225 234.069 270.044 236.573M268.228 264.742C262.342 267.493 266.115 274.618 271.015 275.656C278.802 277.304 288.057 276 296 276L347 276C353.685 276 367.165 278.534 372.682 274.142C383.847 265.254 361.963 264 358 264L295 264C287.59 264 275.002 261.577 268.228 264.742M268.148 292.028C262.717 295.245 265.797 301.805 271.005 302.772C294.632 307.159 322.936 303 347 303C353.492 303 367.424 305.603 372.682 301.258C377.226 297.502 373.987 291.686 368.985 291.109C345.329 288.38 319.827 291 296 291C288.743 291 274.489 288.271 268.148 292.028z"/>
<path style="fill:#ffffff; stroke:none;" d="M320 393C332.27 393 346.266 397.883 345.736 413C345.574 417.626 341.997 421.573 341.997 426C341.997 430.427 345.574 434.374 345.736 439C345.915 444.115 341.995 448.191 341.997 453C341.998 456.146 344.388 459.022 345.207 462C347.392 469.947 341.882 474.732 351.001 479.676C413.231 513.413 477.653 434.847 436.841 379C430.86 370.815 422.888 364.165 414 359.312C404.011 353.859 393.242 352 382 352C369.835 352 358.563 354.77 348 361.015C335.511 368.399 325.578 379.607 320 393z"/>
<path style="fill:#010101; stroke:none;" d="M380.133 370.758C375.888 372.481 376.402 378.187 372.853 380.826C368.971 383.712 365.23 385.718 362.613 390.015C354.55 403.259 361.388 418.115 375 423.315C381.135 425.658 393.794 428.603 392.961 437.424C391.217 455.907 375.14 441.053 368.961 438.223C365.701 436.73 362.089 438.509 361.361 442.044C359.532 450.924 370.042 454.176 374.412 459.39C377.173 462.683 377.544 470.531 383.945 468.353C388.551 466.785 387.439 460.836 391.148 458.209C394.912 455.543 398.568 453.927 401.351 449.996C410.855 436.571 402.766 420.781 389 415.207C383.032 412.79 371 410.707 371.747 401.999C373.297 383.927 388.399 396.196 395.09 400.102C398.398 402.034 402.593 400.926 403.523 396.945C405.698 387.642 394.278 384.401 389.603 379.312C386.543 375.982 387.41 367.804 380.133 370.758z"/>
<path style="fill:#ffffff; stroke:none;" d="M230.109 406.028C224.169 409.372 225.787 417.808 232.015 419.566C239.142 421.579 248.621 420 256 420L306 420C312.579 420 325.279 422.411 330.772 418.258C336.248 414.117 333.273 406.138 326.996 405.148C304.837 401.653 279.458 405 257 405C249.805 405 236.477 402.443 230.109 406.028M230.109 433.028C224.092 436.415 225.86 444.605 232.015 446.427C239.16 448.543 248.591 447 256 447L307 447C313.554 447 326.445 449.431 331.566 444.486C336.155 440.056 332.704 433.049 326.996 432.148C304.837 428.653 279.458 432 257 432C249.805 432 236.477 429.443 230.109 433.028M233.001 458.573C225.312 460.793 223.824 470.634 232.04 473.347C238.753 475.564 247.984 474 255 474L305 474C311.923 474 323.981 476.294 329.941 472.258C337.867 466.89 331.346 458.735 324 458.094C304.312 456.376 283.768 458 264 458C254.491 458 242.166 455.925 233.001 458.573M232.04 485.653C223.92 488.335 225.404 498.217 233.004 500.427C240.184 502.516 249.564 501 257 501L305 501C312.021 501 323.803 503.221 329.891 499.142C337.161 494.271 332.316 485.927 325 485.109C304.539 482.821 282.599 485 262 485C252.988 485 240.637 482.814 232.04 485.653z"/>
</svg>
